<svg width="27" height="28" viewBox="0 0 27 28" fill="none" xmlns="http://www.w3.org/2000/svg">
<path d="M13.7001 4.1001C12.3872 5.41292 11.6497 7.19349 11.6497 9.0501C11.6497 10.9067 12.3872 12.6873 13.7001 14.0001C15.0129 15.3129 16.7934 16.0505 18.6501 16.0505C20.5067 16.0505 22.2872 15.3129 23.6001 14.0001C23.6001 15.9581 23.0194 17.8722 21.9316 19.5002C20.8438 21.1283 19.2976 22.3972 17.4886 23.1465C15.6796 23.8958 13.6891 24.0919 11.7687 23.7099C9.84825 23.3279 8.08424 22.385 6.6997 21.0005C5.31516 19.6159 4.37227 17.8519 3.99028 15.9315C3.60829 14.0111 3.80434 12.0205 4.55365 10.2115C5.30295 8.40254 6.57186 6.85637 8.19991 5.76855C9.82795 4.68072 11.742 4.1001 13.7001 4.1001Z" stroke="black" stroke-width="2.2" stroke-linecap="round" stroke-linejoin="round"/>
</svg>
