<svg width="55" height="44" viewBox="0 0 55 44" fill="none" xmlns="http://www.w3.org/2000/svg">
<path d="M52.88 2.40507e-05C52.9346 6.78785e-05 52.9893 0.000111707 53.0456 0.000156864C53.2001 0.00056988 53.3545 0.00160862 53.509 0.00302405C53.5539 0.00330507 53.5989 0.00358608 53.6452 0.00387561C53.9229 0.00783907 54.1913 0.0262701 54.464 0.080024C54.588 0.212024 54.588 0.212024 54.656 0.336024C54.2819 0.830831 53.8404 1.14292 53.3214 1.46599C53.1768 1.55656 53.0336 1.64932 52.8905 1.74227C52.3832 2.06764 51.9291 2.34565 51.328 2.44802C51.2141 2.47015 51.1003 2.49251 50.9865 2.51502C50.6528 2.58048 50.3186 2.64304 49.984 2.70402C50.023 2.69821 50.0621 2.69239 50.1023 2.6864C50.2802 2.66004 50.4581 2.63403 50.636 2.60802C50.6974 2.59887 50.7588 2.58971 50.8221 2.58027C50.8817 2.57161 50.9413 2.56295 51.0027 2.55402C51.0574 2.54598 51.112 2.53794 51.1683 2.52965C51.3296 2.51185 51.4859 2.50898 51.648 2.51202C51.2281 2.97391 50.6827 3.28729 50.1596 3.6194C49.9383 3.76026 49.7198 3.9043 49.5032 4.05227C48.8326 4.5102 48.2354 4.88753 47.4325 5.06502C47.3829 5.076 47.3333 5.08698 47.2821 5.09829C46.617 5.241 45.9444 5.33886 45.272 5.44002C45.1385 5.46041 45.005 5.48082 44.8715 5.50127C44.5491 5.5506 44.2266 5.59945 43.904 5.64802C43.9467 5.64321 43.9895 5.6384 44.0335 5.63345C44.4778 5.58345 44.9221 5.53365 45.3665 5.48396C45.5324 5.46539 45.6983 5.44676 45.8641 5.42809C46.1024 5.40127 46.3407 5.37463 46.579 5.34802C46.6533 5.33962 46.7275 5.33122 46.8041 5.32257C46.8732 5.31488 46.9424 5.3072 47.0137 5.29927C47.0745 5.29245 47.1353 5.28563 47.198 5.2786C47.36 5.26402 47.36 5.26402 47.616 5.26402C47.5268 5.47653 47.4337 5.5782 47.2444 5.7077C47.1943 5.74241 47.1441 5.77712 47.0925 5.81288C47.0379 5.84981 46.9833 5.88673 46.927 5.92477C46.8701 5.96392 46.8131 6.00306 46.7544 6.04339C46.5727 6.16815 46.3903 6.2921 46.208 6.41602C46.0924 6.4952 45.9769 6.57442 45.8614 6.65368C45.5722 6.85177 45.2823 7.04864 44.9919 7.24495C44.8741 7.32472 44.7563 7.40468 44.6387 7.48482C43.2656 8.42038 42.1963 9.01056 40.532 9.18003C40.4242 9.19143 40.3164 9.20289 40.2086 9.2144C39.9471 9.24231 39.6856 9.26914 39.424 9.29603C39.952 9.31714 40.48 9.33826 41.024 9.36002C41.024 9.42338 41.024 9.48674 41.024 9.55202C40.9712 9.5811 40.9184 9.61017 40.864 9.64012C40.3038 9.95229 39.7691 10.2939 39.2382 10.6532C39.0073 10.8095 38.7756 10.9646 38.544 11.1198C38.4984 11.1503 38.4528 11.1809 38.4058 11.2124C37.8635 11.5751 37.3126 11.9237 36.7606 12.2714C36.5126 12.4285 36.2663 12.5882 36.02 12.748C35.9329 12.8044 35.8458 12.8609 35.7587 12.9173C35.642 12.9929 35.5253 13.0686 35.4087 13.1444C35.3099 13.2085 35.211 13.2723 35.112 13.336C35.0587 13.3705 35.0054 13.405 34.9505 13.4405C34.2952 13.8279 33.2067 13.6687 32.464 13.684C32.338 13.6868 32.212 13.6896 32.086 13.6924C31.78 13.6992 31.474 13.7057 31.168 13.712C31.2531 13.7192 31.2531 13.7192 31.34 13.7266C31.5535 13.745 31.767 13.7641 31.9805 13.7835C32.0723 13.7917 32.1642 13.7998 32.2561 13.8075C32.7858 13.8524 33.2891 13.9108 33.792 14.096C33.6988 14.4379 33.4743 14.6191 33.22 14.848C33.1766 14.8877 33.1332 14.9275 33.0885 14.9684C32.7362 15.2885 32.3729 15.5922 32 15.888C31.9233 15.9505 31.8468 16.0131 31.7702 16.0758C30.3562 17.229 30.3562 17.229 29.6382 17.25C29.5654 17.2524 29.4926 17.2548 29.4176 17.2573C29.3418 17.2595 29.2661 17.2617 29.188 17.264C29.0381 17.2684 28.8882 17.2731 28.7382 17.278C28.6718 17.28 28.6054 17.2819 28.537 17.2839C28.328 17.2935 28.328 17.2935 28.032 17.36C28.4544 17.529 28.8768 17.6979 29.312 17.872C29.1234 18.1078 29.0005 18.2491 28.772 18.424C28.2251 18.8521 27.6973 19.2999 27.188 19.772C27.1244 19.8302 27.0607 19.8884 26.997 19.9465C26.8819 20.0517 26.7678 20.158 26.655 20.2655C26.0438 20.8116 25.2494 20.7692 24.4647 20.8205C24.385 20.826 24.3052 20.8315 24.2229 20.8372C23.9713 20.8545 23.7197 20.8713 23.468 20.888C23.296 20.8997 23.1241 20.9115 22.9521 20.9233C22.5334 20.9519 22.1147 20.9801 21.696 21.008C21.7544 21.0102 21.7544 21.0102 21.814 21.0125C22.2211 21.0278 22.6281 21.0434 23.0351 21.0592C23.1868 21.065 23.3385 21.0708 23.4902 21.0765C23.7088 21.0847 23.9274 21.0932 24.146 21.1018C24.2134 21.1042 24.2807 21.1067 24.3501 21.1093C24.7063 21.1235 25.055 21.1496 25.408 21.2C25.2998 21.4603 25.1191 21.6581 24.936 21.868C24.9021 21.9071 24.8681 21.9462 24.8332 21.9865C24.7266 22.1088 24.6194 22.2305 24.512 22.352C24.4784 22.3902 24.4447 22.4284 24.4101 22.4678C23.3336 23.6841 22.3542 23.9879 20.788 24.276C20.6447 24.3032 20.5014 24.3304 20.3581 24.3576C19.3988 24.5388 18.4368 24.699 17.472 24.848C18.1985 24.7858 18.9247 24.7221 19.6507 24.6545C19.8408 24.6369 20.0309 24.6193 20.221 24.6018C20.3479 24.59 20.4747 24.5781 20.6016 24.5662C20.7829 24.5491 20.9643 24.5323 21.1457 24.5155C21.2 24.5103 21.2543 24.5051 21.3103 24.4998C21.6324 24.4704 21.9485 24.4592 22.272 24.464C22.1703 24.7157 22.0055 24.8692 21.812 25.056C21.5643 25.2957 21.3342 25.5422 21.1087 25.8029C20.9142 26.0247 20.7109 26.238 20.508 26.452C20.418 26.5473 20.328 26.6427 20.238 26.738C20.193 26.7856 20.1481 26.8332 20.1017 26.8823C19.4524 27.5656 19.4524 27.5656 18.824 28.268C17.9441 29.2818 16.6423 30.1194 15.296 30.352C14.6858 30.3924 14.0709 30.3127 13.464 30.256C12.6216 30.1741 12.6216 30.1741 11.776 30.16C11.8412 30.1826 11.9065 30.2052 11.9737 30.2285C12.2155 30.3123 12.4571 30.3967 12.6987 30.4811C12.8033 30.5176 12.9079 30.554 13.0127 30.5902C13.1631 30.6423 13.3133 30.6949 13.4635 30.7475C13.5104 30.7637 13.5574 30.7798 13.6057 30.7964C13.9374 30.9135 13.9374 30.9135 14.08 31.056C12.7352 31.2014 11.3887 31.313 10.0402 31.4171C9.97216 31.4224 9.90415 31.4277 9.83409 31.4331C9.70593 31.4431 9.57777 31.4529 9.44958 31.4626C9.3361 31.4715 9.22268 31.4812 9.10937 31.492C8.96 31.504 8.96 31.504 8.721 31.5019C8.38096 31.6095 8.25854 31.8769 8.07575 32.17C8.0361 32.2311 7.99645 32.2921 7.95559 32.355C7.82904 32.5505 7.70451 32.7472 7.58 32.944C7.49601 33.0746 7.41188 33.2051 7.32762 33.3355C7.13689 33.6311 6.94725 33.9274 6.75954 34.2249C6.68953 34.3325 6.61683 34.4384 6.54178 34.5425C6.50597 34.5925 6.47016 34.6424 6.43327 34.6939C6.40074 34.7376 6.36822 34.7813 6.33471 34.8263C6.25271 35.0012 6.29394 35.0956 6.336 35.28C6.23025 35.4748 6.23025 35.4748 6.084 35.676C5.89438 35.9049 5.89438 35.9049 5.824 36.176C5.90671 36.2639 5.99196 36.3495 6.08 36.432C5.99236 36.6877 5.8967 36.8876 5.696 37.072C5.46275 37.0485 5.46275 37.0485 5.248 37.008C5.22119 37.0721 5.22119 37.0721 5.19384 37.1375C5.02502 37.5408 4.85559 37.9438 4.68549 38.3466C4.59806 38.5536 4.51088 38.7608 4.42422 38.9682C4.3245 39.2067 4.22378 39.4449 4.123 39.683C4.07668 39.7944 4.07668 39.7944 4.02943 39.9081C3.99998 39.9773 3.97053 40.0464 3.94019 40.1177C3.91461 40.1785 3.88902 40.2394 3.86267 40.302C3.63514 40.7273 3.27848 40.8288 2.843 40.9628C2.04364 41.2243 1.3877 41.7704 0.896 42.448C1.01171 42.4306 1.01171 42.4306 1.12975 42.4128C1.87523 42.304 2.62187 42.2204 3.372 42.152C3.43624 42.1461 3.43624 42.1461 3.50178 42.14C4.62057 42.0367 5.73642 41.9899 6.85975 41.9893C6.97673 41.989 7.0937 41.9888 7.21068 41.9885C7.52445 41.9879 7.83821 41.9878 8.15198 41.9879C8.34986 41.988 8.54774 41.988 8.74561 41.9879C10.739 41.988 12.7311 42.0131 14.724 42.06C14.7858 42.0615 14.8475 42.0629 14.9112 42.0644C15.4563 42.0773 16.0015 42.0905 16.5466 42.104C20.5202 42.2021 24.5067 42.2788 28.48 42.128C28.5304 42.1262 28.5808 42.1243 28.6327 42.1224C33.6555 42.1121 33.6555 42.1121 38.08 40.208C38.4388 39.8056 38.641 39.3138 38.662 38.7733C38.6259 38.2496 38.3763 37.8292 38.016 37.456C37.8793 37.3512 37.7493 37.2583 37.604 37.168C37.5647 37.1434 37.5254 37.1188 37.4849 37.0934C35.6983 36.0034 33.4651 35.7774 31.416 35.776C31.3593 35.776 31.3026 35.7759 31.2441 35.7759C29.164 35.7784 26.3566 35.9733 24.768 37.52C24.6488 37.6807 24.6404 37.7588 24.636 37.96C24.7685 38.3498 25.1003 38.5307 25.456 38.708C28.2 39.8644 31.8277 39.5304 34.625 38.6918C34.8229 38.605 34.9326 38.5152 35.072 38.352C34.6999 38.0929 34.3312 37.9356 33.9 37.8C33.841 37.7809 33.782 37.7618 33.7212 37.7421C33.3213 37.6138 32.9199 37.4923 32.512 37.392C32.5331 37.3498 32.5542 37.3075 32.576 37.264C32.8268 37.3002 33.0774 37.338 33.328 37.376C33.3979 37.3861 33.4678 37.3962 33.5397 37.4065C34.2122 37.51 34.9136 37.6591 35.456 38.096C35.5484 38.2809 35.5441 38.403 35.52 38.608C34.9039 39.45 33.397 39.5896 32.4475 39.7397C32.2558 39.7687 32.0639 39.7965 31.872 39.824C31.8218 39.8317 31.7716 39.8394 31.7199 39.8473C30.0976 40.0895 28.2286 40.1083 26.624 39.76C26.5732 39.749 26.5223 39.7381 26.4699 39.7267C25.5868 39.5268 24.6306 39.2329 24.064 38.48C23.8871 38.1545 23.9077 37.8082 24 37.456C24.1025 37.2585 24.231 37.1048 24.384 36.944C24.4188 36.9067 24.4536 36.8693 24.4895 36.8308C26.2834 35.0956 29.6128 34.9436 31.936 34.96C34.3065 35.0195 37.2091 35.335 38.9467 37.1373C39.4535 37.752 39.6182 38.4019 39.552 39.184C39.3596 40.082 38.9665 40.7824 38.1995 41.3045C36.0123 42.6149 33.2075 42.7744 30.72 42.96C30.6386 42.9661 30.5573 42.9722 30.4735 42.9784C28.4347 43.1226 26.3922 43.1108 24.3495 43.1083C24.0991 43.108 23.8487 43.1079 23.5983 43.1079C19.9458 43.1071 16.2981 43.0374 12.647 42.9337C11.0823 42.8895 9.51748 42.8573 7.95246 42.8279C7.74616 42.8241 7.53986 42.8201 7.33356 42.8162C5.01714 42.7722 2.70063 42.7347 0.384 42.704C0.424986 42.4825 0.471686 42.3178 0.5885 42.1245C0.61803 42.0753 0.64756 42.0261 0.677984 41.9755C0.710329 41.9228 0.742675 41.8702 0.776 41.816C0.809541 41.7608 0.843083 41.7055 0.877641 41.6486C1.26195 41.0205 1.66615 40.4051 2.07289 39.7913C2.19465 39.6032 2.30828 39.4109 2.41884 39.216C2.55321 39.0488 2.74245 39.0339 2.944 38.992C3.09057 38.7722 3.08342 38.673 3.072 38.416C2.93006 38.3325 2.93006 38.3325 2.752 38.288C2.60213 38.3596 2.48555 38.4265 2.368 38.544C2.35863 38.7595 2.3634 38.9142 2.432 39.12C2.36637 39.2584 2.36637 39.2584 2.262 39.4208C2.22337 39.4816 2.18474 39.5425 2.14494 39.6052C2.08111 39.7036 2.08111 39.7036 2.016 39.804C1.92765 39.9427 1.83932 40.0813 1.751 40.22C1.70464 40.2924 1.65826 40.3647 1.61187 40.437C1.38625 40.7895 1.16542 41.1449 0.944 41.5C0.903616 41.5646 0.863232 41.6291 0.821625 41.6956C0.783799 41.756 0.745972 41.8165 0.707 41.8788C0.673897 41.9317 0.640794 41.9846 0.606687 42.0391C0.50963 42.1959 0.414503 42.3537 0.32 42.512C0.2144 42.4698 0.1088 42.4275 0 42.384C0.0972422 42.079 0.201528 41.7799 0.324 41.484C0.602151 40.7902 0.667549 40.1673 0.448 39.44C0.383403 39.1474 0.393144 38.9504 0.5565 38.6933C0.70597 38.5087 0.862061 38.3338 1.024 38.16C1.12008 38.0534 1.21608 37.9468 1.312 37.84C1.38328 37.7618 1.38328 37.7618 1.456 37.682C1.65525 37.4579 1.84234 37.2246 2.03075 36.9913C2.17711 36.8147 2.32909 36.6451 2.484 36.476C2.68289 36.258 2.8553 36.0443 3.008 35.792C2.94464 35.7498 2.88128 35.7075 2.816 35.664C2.7867 35.4443 2.80562 35.306 2.888 35.1C3.008 34.96 3.008 34.96 3.2 34.904C3.392 34.896 3.392 34.896 3.584 34.96C3.61799 34.9029 3.65198 34.8458 3.687 34.787C3.73265 34.7113 3.77831 34.6357 3.824 34.56C3.85741 34.5037 3.85741 34.5037 3.8915 34.4463C3.98979 34.2843 4.08366 34.14 4.22012 34.0077C4.36242 33.8613 4.45134 33.7195 4.551 33.5415C4.58828 33.4757 4.62556 33.4099 4.66397 33.3422C4.72338 33.2362 4.72338 33.2362 4.784 33.128C4.86896 32.9783 4.95405 32.8287 5.0395 32.6793C5.07246 32.6216 5.07246 32.6216 5.10609 32.5628C5.39671 32.0571 5.70573 31.5627 6.01494 31.0682C6.05604 31.0023 6.09715 30.9363 6.1395 30.8683C6.17595 30.8102 6.21241 30.752 6.24997 30.6922C6.41003 30.4165 6.3955 30.2586 6.34075 29.9515C6.32675 29.871 6.31275 29.7905 6.29833 29.7076C6.28696 29.644 6.28696 29.644 6.27537 29.5791C6.23635 29.3603 6.19885 29.1413 6.1615 28.9223C6.15417 28.8794 6.14684 28.8365 6.13929 28.7923C6.07144 28.3904 6.02157 27.9887 5.98125 27.5833C5.95748 27.3888 5.9245 27.2032 5.886 27.0115C5.81458 26.626 5.802 26.2514 5.804 25.86C5.80427 25.7862 5.80454 25.7124 5.80481 25.6363C5.82804 23.7839 5.9012 21.5193 6.784 19.856C6.82624 19.856 6.86848 19.856 6.912 19.856C7.07194 20.3831 7.16541 20.9069 7.24 21.452C7.26139 21.6046 7.28289 21.7572 7.3045 21.9098C7.31367 21.9763 7.32283 22.0429 7.33228 22.1115C7.35549 22.2593 7.38659 22.3994 7.424 22.544C7.42532 22.5086 7.42664 22.4731 7.428 22.4366C7.44193 22.0648 7.45659 21.6931 7.47166 21.3214C7.47717 21.183 7.48251 21.0445 7.48766 20.9061C7.49512 20.7062 7.50325 20.5064 7.5115 20.3065C7.51364 20.2454 7.51578 20.1843 7.51798 20.1214C7.56617 19.0097 7.56617 19.0097 7.919 18.658C7.99641 18.5788 7.99641 18.5788 8.07537 18.498C8.13498 18.4393 8.19459 18.3805 8.256 18.32C8.32538 18.2489 8.39458 18.1775 8.46362 18.106C8.65638 17.907 8.85112 17.7101 9.04672 17.5139C9.16736 17.3927 9.2873 17.2707 9.40725 17.1488C9.89087 16.661 10.3867 16.2264 10.944 15.824C10.9991 15.7839 11.0543 15.7437 11.1111 15.7023C11.4214 15.4795 11.7276 15.3473 12.096 15.248C12.6034 15.7555 12.6393 16.4634 12.716 17.148C12.7284 17.2531 12.7284 17.2531 12.7411 17.3604C12.7612 17.5309 12.7808 17.7014 12.8 17.872C12.8045 17.8231 12.809 17.7742 12.8136 17.7238C13.0893 14.7771 13.0893 14.7771 13.908 14C14.1816 13.7772 14.4647 13.5709 14.7532 13.368C14.8002 13.335 14.8471 13.3019 14.8955 13.2679C15.4429 12.8838 15.9965 12.509 16.5511 12.1353C16.7275 12.0163 16.9038 11.8971 17.08 11.7778C17.647 11.3948 18.2168 11.0167 18.7945 10.65C18.8455 10.6175 18.8966 10.585 18.9492 10.5515C19.0198 10.507 19.0198 10.507 19.0919 10.4616C19.133 10.4357 19.1742 10.4098 19.2165 10.3831C19.328 10.32 19.328 10.32 19.52 10.256C19.4847 10.6338 19.3719 10.9403 19.224 11.288C18.9471 11.9573 18.7168 12.6385 18.496 13.328C18.5172 13.2764 18.5384 13.2247 18.5602 13.1715C18.808 12.5866 19.0795 12.0139 19.3607 11.4444C19.4025 11.3597 19.444 11.2748 19.4854 11.1898C20.0126 10.1077 20.6639 9.4413 21.686 8.81952C21.9312 8.6701 22.1702 8.51289 22.408 8.35203C22.9784 7.96796 23.5597 7.60107 24.1408 7.23346C24.3179 7.12138 24.4947 7.00899 24.6715 6.89652C24.781 6.82701 24.8905 6.75751 25 6.68802C25.0504 6.65594 25.1008 6.62386 25.1527 6.59081C25.1995 6.56118 25.2463 6.53155 25.2945 6.50102C25.3555 6.46232 25.3555 6.46232 25.4177 6.42284C25.5397 6.34983 25.6641 6.28599 25.792 6.22402C25.8854 6.46947 25.8227 6.62665 25.736 6.86802C25.7124 6.93477 25.6888 7.00151 25.6645 7.07027C25.6432 7.12893 25.6219 7.18759 25.6 7.24802C25.5789 7.31138 25.5578 7.37474 25.536 7.44002C25.5836 7.36107 25.5836 7.36107 25.6322 7.28052C25.747 7.09202 25.8633 6.90471 25.9805 6.71774C26.0391 6.62248 26.0949 6.52551 26.1502 6.42827C26.7978 5.36666 28.6806 4.79274 29.824 4.49602C30.002 4.48534 30.002 4.48534 30.144 4.49602C30.208 4.56002 30.208 4.56002 30.228 4.74002C30.2115 5.48149 29.7584 6.21184 29.44 6.86402C29.6678 6.63906 29.8882 6.40857 30.104 6.17202C30.135 6.13816 30.166 6.10429 30.198 6.0694C30.363 5.88871 30.5251 5.7062 30.684 5.52002C31.409 4.69366 32.1236 4.08352 33.1567 3.67802C33.212 3.65615 33.2673 3.63427 33.3243 3.61172C33.9113 3.3821 34.5059 3.17518 35.103 2.97331C35.2852 2.91162 35.4672 2.84923 35.6491 2.78677C37.3921 2.19202 37.3921 2.19202 37.888 2.19202C37.7762 2.59297 37.6338 2.88849 37.376 3.21602C37.6342 3.02657 37.8879 2.83473 38.131 2.62602C38.8033 2.05937 39.4078 1.81202 40.256 1.61602C40.3923 1.58295 40.5285 1.54946 40.6648 1.51596C41.1012 1.40886 41.5382 1.30389 41.976 1.20252C42.0577 1.18352 42.1393 1.16451 42.2235 1.14493C42.432 1.10402 42.432 1.10402 42.688 1.10402C42.688 1.58099 42.4171 1.84659 42.112 2.19202C42.2974 2.15237 42.446 2.0944 42.6112 2.00202C42.6575 1.97629 42.7037 1.95056 42.7514 1.92406C42.8004 1.89633 42.8495 1.86859 42.9 1.84002C42.9764 1.79731 42.9764 1.79731 43.0544 1.75374C43.3434 1.5912 43.6287 1.42364 43.9112 1.25006C44.7295 0.748478 45.4549 0.579746 46.4 0.464024C46.4791 0.454124 46.5581 0.444224 46.6396 0.434024C48.7112 0.176759 50.7915 -0.00238733 52.88 2.40507e-05ZM44.1922 3.12052C44.138 3.13822 44.0838 3.15591 44.0279 3.17414C43.849 3.23272 43.6705 3.29233 43.492 3.35202C43.3666 3.39353 43.2412 3.435 43.1158 3.47646C42.7381 3.60173 42.361 3.72868 41.984 3.85602C41.9306 3.87399 41.8773 3.89196 41.8223 3.91047C39.2405 4.78023 36.7105 5.77976 34.24 6.92802C34.1611 6.96452 34.0823 7.00101 34.0034 7.03749C33.12 7.44792 32.2576 7.8893 31.4079 8.36556C31.2278 8.46635 31.0472 8.56609 30.8665 8.66578C29.1901 9.59569 27.5967 10.6633 26.048 11.792C26.0028 11.8249 25.9576 11.8578 25.911 11.8916C24.9279 12.6072 23.9656 13.3467 23.0243 14.1164C22.756 14.3356 22.4853 14.5511 22.212 14.764C21.5038 15.317 20.8134 15.8925 20.1296 16.4753C19.9226 16.6514 19.7124 16.8226 19.5 16.992C18.54 17.778 17.677 18.6808 16.8015 19.5581C16.6357 19.7244 16.4695 19.8903 16.3033 20.0562C16.1731 20.1861 16.0431 20.3162 15.9131 20.4464C15.8226 20.5369 15.732 20.6274 15.6414 20.7178C15.3552 21.005 15.0771 21.295 14.8142 21.6037C14.6637 21.7768 14.5002 21.936 14.336 22.096C14.0807 22.3478 13.8373 22.6041 13.6047 22.8773C13.5009 22.9955 13.3922 23.1058 13.28 23.216C13.0901 23.403 12.9152 23.5987 12.7412 23.8005C12.5721 23.9928 12.3982 24.1803 12.224 24.368C11.9788 24.6325 11.7366 24.8986 11.5007 25.1715C11.3732 25.3176 11.2426 25.4607 11.112 25.604C10.8591 25.884 10.6206 26.1734 10.3835 26.4668C10.2467 26.6319 10.1051 26.7902 9.96 26.948C9.36087 27.6093 8.84966 28.3245 8.35125 29.063C8.16168 29.3437 7.96785 29.6211 7.77297 29.8981C6.92508 31.1052 6.10755 32.3371 5.332 33.592C5.30467 33.6359 5.27733 33.6797 5.24917 33.7249C5.10685 33.9591 5.00381 34.1845 4.928 34.448C5.16388 34.6052 5.16388 34.6052 5.44 34.64C5.54734 34.5041 5.54734 34.5041 5.64725 34.3223C5.68848 34.2523 5.72971 34.1823 5.77219 34.1101C5.79422 34.0721 5.81626 34.0341 5.83896 33.9949C5.95817 33.7896 6.08006 33.586 6.20225 33.3825C6.24113 33.3178 6.24113 33.3178 6.28079 33.2517C6.58821 32.7433 6.91693 32.2492 7.248 31.756C7.29338 31.6884 7.29338 31.6884 7.33968 31.6194C7.51278 31.3618 7.6865 31.1046 7.86055 30.8476C7.96701 30.6902 8.07297 30.5325 8.179 30.3748C8.86729 29.3555 9.59752 28.3667 10.368 27.408C10.4009 27.367 10.4338 27.3261 10.4677 27.2838C11.0774 26.526 11.6953 25.7763 12.3495 25.0563C12.4666 24.9268 12.5817 24.7959 12.696 24.664C12.9713 24.3482 13.2558 24.0409 13.5396 23.7327C13.6305 23.6336 13.721 23.5342 13.8112 23.4345C14.1372 23.0755 14.4692 22.7252 14.817 22.387C14.9356 22.2654 15.044 22.1445 15.1532 22.0151C15.5251 21.5889 15.9316 21.1952 16.3317 20.7958C16.4203 20.7072 16.5088 20.6186 16.5973 20.53C16.7822 20.345 16.9672 20.1601 17.1523 19.9754C17.3885 19.7396 17.6243 19.5035 17.86 19.2674C18.0426 19.0846 18.2253 18.902 18.4081 18.7194C18.495 18.6325 18.582 18.5455 18.6688 18.4585C19.5209 17.6053 19.5209 17.6053 19.968 17.232C20.0388 17.1713 20.1096 17.1104 20.1802 17.0495C20.2495 16.9903 20.3187 16.9312 20.388 16.872C20.7092 16.5973 21.029 16.3212 21.348 16.044C22.01 15.4694 22.6798 14.9051 23.36 14.352C23.4378 14.2882 23.5155 14.2244 23.5932 14.1605C24.9413 13.0555 26.3433 12.0166 27.776 11.024C27.8138 10.9977 27.8517 10.9714 27.8906 10.9442C29.1192 10.0931 30.4251 9.35639 31.744 8.65602C31.8001 8.62598 31.8563 8.59594 31.9141 8.56499C33.6828 7.61961 35.4968 6.77131 37.3347 5.97004C37.5482 5.87692 37.7612 5.78263 37.9741 5.68788C38.8593 5.29574 39.7553 4.94567 40.664 4.61202C40.8053 4.55978 40.9466 4.5075 41.088 4.4552C41.5144 4.29751 41.9412 4.14068 42.368 3.98402C42.5032 3.93436 42.6384 3.88469 42.7737 3.83502C43.5127 3.56368 44.2522 3.29333 44.992 3.02402C44.6985 2.93066 44.4744 3.02556 44.1922 3.12052ZM43.136 5.71202C43.136 5.73314 43.136 5.75426 43.136 5.77602C43.2416 5.77602 43.3472 5.77602 43.456 5.77602C43.456 5.7549 43.456 5.73378 43.456 5.71202C43.3504 5.71202 43.2448 5.71202 43.136 5.71202ZM18.304 13.648C18.368 13.84 18.368 13.84 18.368 13.84L18.304 13.648ZM18.24 13.84C18.304 13.968 18.304 13.968 18.304 13.968L18.24 13.84ZM4.096 35.984C4.35641 36.2107 4.62869 36.3609 4.936 36.512C4.98179 36.5353 5.02757 36.5586 5.07475 36.5825C5.34047 36.716 5.34047 36.716 5.632 36.752C5.67424 36.6675 5.71648 36.5831 5.76 36.496C5.47602 36.3 5.18501 36.2194 4.856 36.132C4.80411 36.1176 4.75221 36.1032 4.69875 36.0884C4.48943 36.0315 4.31415 35.984 4.096 35.984ZM4.544 36.752C4.503 36.8447 4.503 36.8447 4.46117 36.9392C3.92043 38.1604 3.37735 39.3801 2.816 40.592C2.99245 40.6453 3.05302 40.6629 3.232 40.5983C3.46122 40.4059 3.53865 40.1903 3.648 39.916C3.68313 39.8308 3.68313 39.8308 3.71897 39.7439C3.80354 39.5366 3.88588 39.3284 3.968 39.12C4.00418 39.0289 4.04037 38.9378 4.07656 38.8467C4.17403 38.6009 4.27051 38.3548 4.36631 38.1083C4.40476 38.0095 4.44337 37.9107 4.48212 37.812C4.53688 37.6721 4.59081 37.5318 4.6445 37.3915C4.6612 37.3492 4.6779 37.3068 4.69511 37.2632C4.79171 37.0123 4.79171 37.0123 4.736 36.752C4.67264 36.752 4.60928 36.752 4.544 36.752Z" fill="white"/>
</svg>
